HIERARCHY
ROOT joint_Root
{
	OFFSET 0.0 0.0 0.0
	CHANNELS 6 Xposition Yposition Zposition Zrotation Xrotation Yrotation 
	JOINT Hips
	{
		OFFSET -17.1583 93.1646 452.98
		CHANNELS 6 Xposition Yposition Zposition Zrotation Xrotation Yrotation 
		JOINT Spine
		{
			OFFSET 15.7357 0.0 0.0
			CHANNELS 6 Xposition Yposition Zposition Zrotation Xrotation Yrotation 
			JOINT Chest
			{
				OFFSET 8.98455 -0.406207 0.0
				CHANNELS 6 Xposition Yposition Zposition Zrotation Xrotation Yrotation 
				JOINT Neck
				{
					OFFSET 16.3773 0.0 0.0
					CHANNELS 6 Xposition Yposition Zposition Zrotation Xrotation Yrotation 
					JOINT Head
					{
						OFFSET 6.45672 0.0 0.0
						CHANNELS 6 Xposition Yposition Zposition Zrotation Xrotation Yrotation 
						End Site
						{
							OFFSET 0.0 0.0 0.0
						}
					}
				}
				JOINT Shoulder_L
				{
					OFFSET 12.9942 -0.242716 4.98039
					CHANNELS 6 Xposition Yposition Zposition Zrotation Xrotation Yrotation 
					JOINT UpperArm_L
					{
						OFFSET 5.34809 0.0 0.0
						CHANNELS 6 Xposition Yposition Zposition Zrotation Xrotation Yrotation 
						JOINT LowerArm_L
						{
							OFFSET 24.3286 1.87007e-05 0.0
							CHANNELS 6 Xposition Yposition Zposition Zrotation Xrotation Yrotation 
							JOINT Hand_L
							{
								OFFSET 22.2916 0.0 0.0
								CHANNELS 6 Xposition Yposition Zposition Zrotation Xrotation Yrotation 
								End Site
								{
									OFFSET 0.0 0.0 0.0
								}
							}
						}
					}
				}
				JOINT Shoulder_R
				{
					OFFSET 12.9945 -0.242716 -4.98039
					CHANNELS 6 Xposition Yposition Zposition Zrotation Xrotation Yrotation 
					JOINT UpperArm_R
					{
						OFFSET -5.34813 0.0 0.0
						CHANNELS 6 Xposition Yposition Zposition Zrotation Xrotation Yrotation 
						JOINT LowerArm_R
						{
							OFFSET -24.3289 0.000322201 0.0
							CHANNELS 6 Xposition Yposition Zposition Zrotation Xrotation Yrotation 
							JOINT Hand_R
							{
								OFFSET -22.2915 -0.000108084 0.0
								CHANNELS 6 Xposition Yposition Zposition Zrotation Xrotation Yrotation 
								End Site
								{
									OFFSET 0.0 0.0 0.0
								}
							}
						}
					}
				}
			}
		}
		JOINT UpperLeg_L
		{
			OFFSET -2.19248 -6.46944 0.0
			CHANNELS 6 Xposition Yposition Zposition Zrotation Xrotation Yrotation 
			JOINT LowerLeg_L
			{
				OFFSET 39.0811 0.0 -1.23785e-05
				CHANNELS 6 Xposition Yposition Zposition Zrotation Xrotation Yrotation 
				JOINT Foot_L
				{
					OFFSET 40.9854 0.0 -1.26872e-05
					CHANNELS 6 Xposition Yposition Zposition Zrotation Xrotation Yrotation 
					JOINT Toes_L
					{
						OFFSET 11.7543 0.0 0.0
						CHANNELS 6 Xposition Yposition Zposition Zrotation Xrotation Yrotation 
						End Site
						{
							OFFSET 0.0 0.0 0.0
						}
					}
				}
			}
		}
		JOINT UpperLeg_R
		{
			OFFSET -2.19251 6.46944 0.0
			CHANNELS 6 Xposition Yposition Zposition Zrotation Xrotation Yrotation 
			JOINT LowerLeg_R
			{
				OFFSET -39.0811 -0.00228153 -0.0401928
				CHANNELS 6 Xposition Yposition Zposition Zrotation Xrotation Yrotation 
				JOINT Foot_R
				{
					OFFSET -40.9854 0.0 0.0
					CHANNELS 6 Xposition Yposition Zposition Zrotation Xrotation Yrotation 
					JOINT Toes_R
					{
						OFFSET -11.7543 0.0 0.0
						CHANNELS 6 Xposition Yposition Zposition Zrotation Xrotation Yrotation 
						End Site
						{
							OFFSET 0.0 0.0 0.0
						}
					}
				}
			}
		}
	}
}
MOTION
Frames:	4
Frame Time:	0.0333333
0.000000 0.000000 0.000000 0.000000 0.000000 -0.000000 -0.487533 92.901800 0.979284 88.381900 -1.973620 3.186450 15.735700 0.000005 -0.000001 76.150300 86.485100 -69.250800 8.984550 -0.406207 -0.000000 -0.770923 -2.194660 13.779700 16.377300 -0.000001 -0.000001 -1.724150 2.118790 6.703160 6.456720 -0.000001 -0.000000 2.063990 4.102230 15.059400 12.994200 -0.242716 4.980390 -89.011100 -2.091230 -64.684500 5.348090 -0.000007 -0.000001 -57.769600 -56.551900 -78.967700 24.328600 0.000019 0.000005 0.000288 -9.977000 0.000001 22.291600 -0.000001 0.000005 18.076400 3.089930 36.021900 12.994500 -0.242716 -4.980390 89.208300 2.747760 -73.919500 -5.348130 -0.000001 -0.000004 -65.181600 11.479800 -5.284090 -24.328900 0.000322 -0.000009 0.900051 3.193750 -15.765100 -22.291500 -0.000108 -0.000004 5.324460 5.223990 2.109910 -2.192480 -6.469440 -0.000000 -173.133000 -9.023240 2.245280 39.081100 -0.000007 -0.000012 0.035251 -0.123826 15.890900 40.985400 -0.000006 -0.000013 -0.690909 13.352400 -69.452100 11.754300 -0.000000 0.000003 -0.001256 0.186612 -9.006620 -2.192510 6.469440 -0.000001 177.205000 2.994980 -177.307000 -39.081100 -0.002282 -0.040193 0.047823 -0.183326 13.641100 -40.985400 0.000008 0.000006 -3.347160 5.160930 -69.161600 -11.754300 -0.000006 -0.000006 -0.011593 0.282847 -5.078660
0.000000 0.000000 0.000000 0.000000 0.000000 -0.000000 -0.539876 92.910400 0.930902 88.306900 -2.345960 3.081710 15.735700 0.000005 -0.000001 79.739600 86.532300 -72.935400 8.984550 -0.406207 -0.000000 -0.801613 -1.742130 13.591300 16.377300 -0.000001 -0.000001 -1.477780 2.324090 6.608950 6.456720 -0.000001 -0.000000 1.957570 4.093910 14.810400 12.994200 -0.242716 4.980390 -88.987100 -2.120890 -64.463400 5.348090 -0.000007 -0.000001 -55.731800 -56.350300 -78.351600 24.328600 0.000019 0.000005 0.000103 -8.155930 0.000001 22.291600 -0.000001 0.000005 19.457200 3.129600 35.545600 12.994500 -0.242716 -4.980390 89.246000 2.644650 -74.081200 -5.348130 -0.000001 -0.000004 -64.831000 11.977200 -5.169930 -24.328900 0.000322 -0.000009 0.944473 3.445040 -15.358000 -22.291500 -0.000108 -0.000004 5.226560 5.221170 2.182820 -2.192480 -6.469440 -0.000000 -173.067000 -9.016930 2.188770 39.081100 -0.000007 -0.000012 0.036268 -0.127758 15.848400 40.985400 -0.000006 -0.000013 -0.790079 13.011900 -69.396200 11.754300 -0.000000 0.000003 -0.001146 0.185088 -9.068550 -2.192510 6.469440 -0.000001 177.303000 2.989290 -177.491000 -39.081100 -0.002282 -0.040193 0.047597 -0.182490 13.634100 -40.985400 0.000008 0.000006 -3.290430 5.468960 -69.054100 -11.754300 -0.000006 -0.000006 -0.011663 0.283339 -5.058500
0.000000 0.000000 0.000000 0.000000 0.000000 -0.000000 -0.607119 92.940800 0.881248 88.191700 -2.444180 2.788470 15.735700 0.000005 -0.000001 81.261700 86.657900 -74.540800 8.984550 -0.406207 -0.000000 -1.034100 -1.529780 13.423600 16.377300 -0.000001 -0.000001 -1.130890 2.614320 6.256690 6.456720 -0.000001 -0.000000 2.120780 4.215080 14.653100 12.994200 -0.242716 4.980390 -88.906800 -2.262370 -64.201700 5.348090 -0.000007 -0.000001 -54.377000 -56.603500 -79.861600 24.328600 0.000019 0.000005 0.000084 -7.861340 0.000001 22.291600 -0.000001 0.000005 22.507200 3.183900 34.890300 12.994500 -0.242716 -4.980390 89.257500 2.612600 -74.129600 -5.348130 -0.000001 -0.000004 -64.327800 11.909100 -5.268370 -24.328900 0.000322 -0.000009 1.002080 3.867910 -14.551100 -22.291500 -0.000108 -0.000004 5.298430 5.213790 2.371030 -2.192480 -6.469440 -0.000000 -172.978000 -8.971130 1.959120 39.081100 -0.000007 -0.000012 0.036633 -0.130343 15.698300 40.985400 -0.000006 -0.000013 -0.880572 12.851300 -69.356900 11.754300 -0.000000 0.000003 -0.001105 0.184512 -9.091960 -2.192510 6.469440 -0.000001 177.417000 3.129050 -177.684000 -39.081100 -0.002282 -0.040193 0.041798 -0.162343 13.329800 -40.985400 0.000008 0.000006 -3.496440 5.742180 -68.777000 -11.754300 -0.000006 -0.000006 -0.011670 0.283385 -5.056610
0.000000 0.000000 0.000000 0.000000 0.000000 -0.000000 -0.655470 92.950200 0.883475 88.106400 -2.396230 2.664590 15.735700 0.000005 -0.000001 81.846000 86.754800 -75.218400 8.984550 -0.406207 -0.000000 -1.223530 -1.438730 13.235900 16.377300 -0.000001 -0.000001 -0.693630 2.944360 5.807420 6.456720 -0.000001 -0.000000 2.406130 4.374270 14.577300 12.994200 -0.242716 4.980390 -88.787200 -2.481410 -63.942400 5.348090 -0.000007 -0.000001 -54.583900 -57.196700 -83.692900 24.328600 0.000019 0.000005 0.000347 -6.746830 0.000001 22.291600 -0.000001 0.000005 25.875400 3.315430 33.280600 12.994500 -0.242716 -4.980390 89.261800 2.591830 -74.097000 -5.348130 -0.000001 -0.000004 -63.831400 11.229900 -5.425610 -24.328900 0.000322 -0.000009 1.078010 4.443700 -13.663900 -22.291500 -0.000108 -0.000004 5.878060 5.205620 2.577680 -2.192480 -6.469440 -0.000000 -172.880000 -8.953910 1.825380 39.081100 -0.000007 -0.000012 0.036055 -0.128239 15.703800 40.985400 -0.000006 -0.000013 -0.911675 12.877400 -69.398700 11.754300 -0.000000 0.000003 -0.001164 0.185334 -9.058570 -2.192510 6.469440 -0.000001 177.508000 3.273880 -177.731000 -39.081100 -0.002282 -0.040193 0.038355 -0.149516 13.183000 -40.985400 0.000008 0.000006 -3.641470 5.883160 -68.629100 -11.754300 -0.000006 -0.000006 -0.011463 0.281933 -5.116080
